<?xml version="1.0" encoding="utf-8"?>
<!-- Generator: Adobe Illustrator 25.1.0, SVG Export Plug-In . SVG Version: 6.00 Build 0)  -->
<svg version="1.1" id="Layer_1" xmlns="http://www.w3.org/2000/svg" xmlns:xlink="http://www.w3.org/1999/xlink" x="0px" y="0px"
	 viewBox="0 0 250 239.2" style="enable-background:new 0 0 250 239.2;" xml:space="preserve">
<style type="text/css">
	.st0{fill-rule:evenodd;clip-rule:evenodd;fill:#D63539;}
	.st1{fill-rule:evenodd;clip-rule:evenodd;fill:#2FAFE4;}
</style>
<g>
	<path class="st0" d="M106.4,231.9H8.2c-0.5,0-1-0.4-1-1v-2.6c0-0.5,0.3-0.9,0.8-1c12-1.7,19-8.8,24.7-19c5.1-9,8.9-18.6,12.9-28
		l38.4-92.7c0.1,6.6,1.8,13,5,19.3c2.2,4.3,5.3,8.2,8.5,11.8c5.3,6,11.3,11.3,17.2,16.6c6.8,6.1,13.6,12.2,19.5,19.2
		c3.8,4.4,7.1,9.2,9.2,14.6c2,5,2.8,10.3,3,15.6C147.8,210,133.8,231.9,106.4,231.9L106.4,231.9z"/>
	<path class="st1" d="M124.5,7.3l6.4,0c0.4,0,0.7,0.2,0.9,0.6l71.5,172.5c3.9,9.5,7.8,19.1,12.9,28c5.8,10.2,12.8,17.2,24.7,19
		c0.5,0.1,0.8,0.5,0.8,1v2.6c0,0.5-0.4,1-1,1H133.5l0.8-0.2c10.9-3.2,19.9-9.4,27.1-18.2c5.3-6.5,9-13.9,11.2-22
		c3.2-12,2.6-23.6-2.3-35.1c-5.2-12.3-15.8-23-25.8-31.7l-17.2-14.9c-14.6-12.6-26.6-29.2-21.2-49.4c1.2-4.5,3.2-8.6,5.9-12.4
		c2.6-3.7,5.8-7,9.6-9.5c2.7-1.8,5.5-3.2,8.4-4.2c-5.7,0.8-11.3,2.6-16.7,5.4c-4.9,2.6-9.3,5.8-13.2,9.7l17.2-41.5
		c0.2-0.4,0.5-0.6,0.9-0.6L124.5,7.3L124.5,7.3z"/>
	<g>
		<path class="st0" d="M135.8,29.5c-0.4,0-4.4-1.4-5.3-1.7l-5.3-1.7c-0.1,0-2.2,1-2.5,1.1c0.1,0.5,0.2,0.5,0.5,0.8l4,4.5
			c0.3,0.3,0.5,0.5,0.7,0.7c0.5,0.5,0.9,1,1.4,1.4c0.9,0.7,2.1,2.2,3.2,2.4c2.6,0.5,7.1-0.6,9.7-1.3c0.7-0.2,1.5-0.5,2.2-0.7
			c1.4-0.4,4.7-1.7,6-2.3c0.3-0.2,0.6-0.3,1-0.4c0.3-0.2,0.6-0.4,1-0.4l-2,19.5c0,0.4-0.3,1,0,1.4c0.3,0.5,2.4-0.7,3.1-1.1
			c2.4-1.2,2.1-0.5,3.1-3.2l4.1-11.5c1.1-3.4,2.5-6.9,3.6-10.3c0.4-1.2,0.2-0.7,1.7-1.4l9.4-4.5c2.7-1.3,6.1-4.9,3.3-7
			c-1.9-1.4-7.2-1.5-9.3-0.5l-12.8,6.1c-0.4,0.2-0.7,0.4-1.1,0.6c-0.5,0.2-0.8,0.3-1.2,0.6C154.2,20.6,135.8,29.5,135.8,29.5z"/>
		<path class="st0" d="M134.9,16.3c0,0.8,0.3,0.7,0.7,1.1c0.4,0.3,0.7,0.4,1.1,0.7c0.8,0.5,1.5,0.9,2.2,1.5l4.4,2.8
			c0.9,0.6,0.7,0.7,2.3-0.1l5-2.4c0.8-0.3,1.9-1,2.5-1.2v-0.2c-1-0.2-2.1-0.7-3.2-1.1c-1.2-0.4-9-3.3-9.7-3.3
			c-1.2,0-1.7,0.4-3.1,1.1c-0.4,0.2-0.8,0.4-1.2,0.6C136.1,15.7,134.9,16.3,134.9,16.3z"/>
	</g>
</g>
</svg>
